<?xml version="1.0" encoding="UTF-8"?>
<svg xmlns="http://www.w3.org/2000/svg" viewBox="0 0 757 748.94">
  <defs>
    <style>
      .cls-1 {
        fill: #2b2b2b;
      }
    </style>
  </defs>
  <g id="_Слой_2" data-name="Слой 2">
    <path class="cls-1" d="M715.38,529.61c-58.96,129.39-189.43,219.33-340.91,219.33C167.65,748.94,0,581.28,0,374.47S167.65,0,374.47,0c3.65,0,7.29,.05,10.92,.16-76.29,57.08-125.67,148.16-125.67,250.78,0,172.87,140.13,313,313,313,51.39,0,99.88-12.38,142.66-34.33Z"/>
  </g>
  <g id="_Слой_3" data-name="Слой 3">
    <path class="cls-1" d="M507.22,258.44c-41.42,0-75,33.58-75,75,0-41.42-33.58-75-75-75,41.42,0,75-33.58,75-75,0,41.42,33.58,75,75,75Z"/>
    <path class="cls-1" d="M616.5,367.5c-41.42,0-75,33.58-75,75,0-41.42-33.58-75-75-75,41.42,0,75-33.58,75-75,0,41.42,33.58,75,75,75Z"/>
    <path class="cls-1" d="M757,227c-41.42,0-75,33.58-75,75,0-41.42-33.58-75-75-75,41.42,0,75-33.58,75-75,0,41.42,33.58,75,75,75Z"/>
  </g>
</svg>