<?xml version="1.0" encoding="UTF-8"?>
<svg xmlns="http://www.w3.org/2000/svg" viewBox="0 0 800 800">
  <defs>
    <style>
      .cls-1, .cls-2, .cls-3, .cls-4, .cls-5 {
        stroke-width: 10px;
      }

      .cls-1, .cls-2, .cls-3, .cls-4, .cls-5, .cls-6 {
        stroke: #000;
        stroke-miterlimit: 10;
      }

      .cls-1, .cls-3 {
        fill: none;
      }

      .cls-2, .cls-3, .cls-6 {
        stroke-linecap: round;
      }

      .cls-4, .cls-6 {
        fill: #fff;
      }

      .cls-6 {
        stroke-width: 3px;
      }
    </style>
  </defs>
  <g id="_Слой_2" data-name="Слой 2">
    <g>
      <path d="M400,799.5c-53.93,0-106.25-10.56-155.5-31.39-47.57-20.12-90.3-48.93-126.99-85.62s-65.5-79.41-85.62-126.99C11.06,506.25,.5,453.93,.5,400s10.56-106.25,31.39-155.5c20.12-47.57,48.93-90.3,85.62-126.99S196.92,52.02,244.5,31.89C293.75,11.06,346.07,.5,400,.5s106.25,10.56,155.5,31.39c47.57,20.12,90.3,48.93,126.99,85.62s65.5,79.41,85.62,126.99c20.83,49.25,31.39,101.57,31.39,155.5s-10.56,106.25-31.39,155.5c-20.12,47.57-48.93,90.3-85.62,126.99s-79.41,65.5-126.99,85.62c-49.25,20.83-101.57,31.39-155.5,31.39Z"/>
      <path d="M400,1c53.87,0,106.12,10.55,155.31,31.35,47.51,20.1,90.18,48.87,126.83,85.51s65.41,79.31,85.51,126.83c20.81,49.19,31.35,101.44,31.35,155.31s-10.55,106.12-31.35,155.31c-20.1,47.51-48.87,90.18-85.51,126.83s-79.31,65.41-126.83,85.51c-49.19,20.81-101.44,31.35-155.31,31.35s-106.12-10.55-155.31-31.35c-47.51-20.1-90.18-48.87-126.83-85.51s-65.41-79.31-85.51-126.83C11.55,506.12,1,453.87,1,400s10.55-106.12,31.35-155.31c20.1-47.51,48.87-90.18,85.51-126.83S197.18,52.45,244.69,32.35C293.88,11.55,346.13,1,400,1m0-1C179.09,0,0,179.09,0,400s179.09,400,400,400,400-179.09,400-400S620.91,0,400,0h0Z"/>
    </g>
  </g>
  <g id="_Слой_5" data-name="Слой 5">
    <path class="cls-4" d="M723,376.5c0,74.11-19.73,141.27-51.75,190.26-48.58,81.64-166.5,139.24-304.25,139.24-181.15,0-328-99.62-328-222.5,0-67.28,44.02-127.59,113.6-168.38,15.25-124.86,96.03-220.12,193.4-220.12,40.24,0,77.64,16.27,108.76,44.18,25.98-21.77,55.9-34.18,87.74-34.18,99.69,0,180.5,121.55,180.5,271.5Z"/>
  </g>
  <g id="_Слой_6" data-name="Слой 6">
    <path class="cls-4" d="M726,511c-17.04-12.31-56.11,5.77-93,15-137.45,34.4-221.38-69.56-323-24-34.96,15.67-38.58,38.37-27,54,20,27,24,10,87,9,86.77-1.38,92,42,196,39,39.18-1.13,103.78,8.52,115-17,4.52-10.28,.36-25.48,11-33,1.99-1.4,4.98-1.83,9.98-3.03,10.74-2.58,13.7-1.45,17.02-2.97,9.63-4.4,25-24,7-37Z"/>
    <path class="cls-3" d="M324,534c10.49-1.6,24.03-3.13,44-5,32-3,48,2,89,19,65.14,27.01,133.85,20.69,144,19,24-4,47-8,92-14"/>
  </g>
  <g id="_Слой_3" data-name="Слой 3">
    <ellipse class="cls-5" cx="628.5" cy="324" rx="128.5" ry="77"/>
    <ellipse class="cls-5" cx="391.5" cy="324" rx="128.5" ry="77"/>
    <path class="cls-6" d="M513,303c19.71-9.22,61.91-21.07,106-22,53.38-1.13,97,13,115,36,1.81,2.31,11,11,11,25,0,0,.54,9.34-8,18-27.39,27.78-119,21-119,21-27.4-2.42-66.76-8.32-113-24,6.76-12.72,13.12-30.68,9-50-.29-1.36-.63-2.7-1-4Z"/>
    <path class="cls-6" d="M506,363c-1.57,2.44-3.51,4.39-5.68,6.15-15.04,12.21-36.68,16.16-100.32,12.85-29.34-1.53-53.7-3.68-78-11-10.45-3.15-15.64-5.76-26-11-14.86-7.5-28.05-14.35-28-23,.03-4.44,3.52-7.88,6-10,52.18-44.56,121-48,121-48,65-4,78,18,117,25,17.49,3.14,3,45-6,59Z"/>
    <circle class="cls-2" cx="667.5" cy="342.5" r="47.5"/>
    <circle class="cls-2" cx="428.5" cy="342.5" r="47.5"/>
    <ellipse class="cls-1" cx="391.5" cy="324" rx="128.5" ry="77"/>
    <path class="cls-3" d="M512,354c1.56,4.19,9.91,10.79,19,14,17,6,25,13,33,10"/>
  </g>
</svg>